<svg xmlns="http://www.w3.org/2000/svg" viewBox="0 0 100 100">
  <!-- Top half (red) -->
  <path d="M50 5 A45 45 0 0 1 95 50 H62 A12 12 0 0 0 38 50 H5 A45 45 0 0 1 50 5" fill="#dc0a2d"/>
  
  <!-- Bottom half (white) -->
  <path d="M50 95 A45 45 0 0 1 5 50 H38 A12 12 0 0 0 62 50 H95 A45 45 0 0 1 50 95" fill="#ffffff"/>
  
  <!-- Center line -->
  <rect x="5" y="47" width="90" height="6" fill="#1a1a2e"/>
  
  <!-- Center circle outer -->
  <circle cx="50" cy="50" r="18" fill="#1a1a2e"/>
  
  <!-- Center circle middle -->
  <circle cx="50" cy="50" r="14" fill="#ffffff"/>
  
  <!-- Center circle inner -->
  <circle cx="50" cy="50" r="8" fill="#1a1a2e"/>
  
  <!-- Highlight -->
  <ellipse cx="35" cy="25" rx="12" ry="8" fill="rgba(255,255,255,0.3)" transform="rotate(-30 35 25)"/>
  
  <!-- Outer ring -->
  <circle cx="50" cy="50" r="45" fill="none" stroke="#1a1a2e" stroke-width="3"/>
</svg>
